<svg width="512" height="512" viewBox="0 0 512 512" fill="none" xmlns="http://www.w3.org/2000/svg" role="img" aria-labelledby="title desc">
  <title id="title">Product Labels logo</title>
  <desc id="desc">Black and orange label logo with a die-cut tag, barcode lines, and peel effect.</desc>
  <defs>
    <linearGradient id="bg" x1="92" y1="76" x2="420" y2="432" gradientUnits="userSpaceOnUse">
      <stop stop-color="#050505"/>
      <stop offset="1" stop-color="#171717"/>
    </linearGradient>
    <linearGradient id="edge" x1="110" y1="98" x2="402" y2="410" gradientUnits="userSpaceOnUse">
      <stop stop-color="#FFB066"/>
      <stop offset="1" stop-color="#F97316"/>
    </linearGradient>
    <linearGradient id="tag" x1="151" y1="150" x2="358" y2="346" gradientUnits="userSpaceOnUse">
      <stop stop-color="#FFF0DD"/>
      <stop offset="1" stop-color="#FFB263"/>
    </linearGradient>
    <filter id="shadow" x="50" y="50" width="412" height="412" filterUnits="userSpaceOnUse" color-interpolation-filters="sRGB">
      <feDropShadow dx="0" dy="18" stdDeviation="22" flood-color="#000000" flood-opacity="0.45"/>
    </filter>
  </defs>

  <g filter="url(#shadow)">
    <rect x="80" y="80" width="352" height="352" rx="88" fill="url(#bg)"/>
    <rect x="92" y="92" width="328" height="328" rx="76" stroke="url(#edge)" stroke-width="4" stroke-opacity="0.85"/>
  </g>

  <path d="M152 186C152 167.222 167.222 152 186 152H299.431C308.449 152 317.098 155.582 323.475 161.958L350.042 188.525C356.418 194.902 360 203.551 360 212.569V300C360 318.778 344.778 334 326 334H186C167.222 334 152 318.778 152 300V186Z" fill="url(#tag)"/>
  <path d="M301 153V192C301 204.15 310.85 214 323 214H362" stroke="#F39A3E" stroke-width="12" stroke-linejoin="round"/>
  <circle cx="204" cy="199" r="15" fill="#7E3A08"/>

  <path d="M198 246V301" stroke="#7E3A08" stroke-width="10" stroke-linecap="round"/>
  <path d="M214 237V301" stroke="#7E3A08" stroke-width="6" stroke-linecap="round"/>
  <path d="M226 243V301" stroke="#7E3A08" stroke-width="4" stroke-linecap="round"/>
  <path d="M239 233V301" stroke="#7E3A08" stroke-width="10" stroke-linecap="round"/>
  <path d="M255 240V301" stroke="#7E3A08" stroke-width="6" stroke-linecap="round"/>
  <path d="M269 236V301" stroke="#7E3A08" stroke-width="9" stroke-linecap="round"/>
  <path d="M286 244V301" stroke="#7E3A08" stroke-width="4" stroke-linecap="round"/>
  <path d="M297 233V301" stroke="#7E3A08" stroke-width="10" stroke-linecap="round"/>
  <path d="M313 245V301" stroke="#7E3A08" stroke-width="6" stroke-linecap="round"/>

  <path d="M175 351H337" stroke="#F97316" stroke-width="16" stroke-linecap="round"/>
  <path d="M201 381H311" stroke="#FFB066" stroke-width="12" stroke-linecap="round"/>
</svg>
